<svg width="170" height="186" viewBox="0 0 170 186" fill="none" xmlns="http://www.w3.org/2000/svg">
<path d="M160 81.2416C160 74.859 155.354 69.6731 149.637 69.6731H140.658C140.435 69.1246 140.211 68.5761 139.899 68.0775L119.44 32.5245C117.966 29.9814 115.688 28.1863 113.052 27.5381C110.372 26.8898 107.692 27.4383 105.369 29.0839C100.634 32.4746 99.2942 39.5054 102.332 44.791L116.626 69.6233H53.4187L67.7129 44.791C68.785 42.946 69.321 40.8518 69.321 38.6577C69.321 34.7683 67.5789 31.1781 64.6307 29.0839C62.3526 27.4383 59.6278 26.8898 56.9476 27.5381C54.3121 28.1863 52.0339 29.9315 50.5599 32.5245L30.1013 68.0775C29.7886 68.5761 29.5652 69.1246 29.3419 69.6731H20.3633C14.6456 69.6731 10 74.859 10 81.2416V81.9895C10 88.3721 14.6456 93.558 20.3633 93.558H21.346L38.3651 155.539C38.8118 157.135 40.1072 158.182 41.5813 158.182H128.329C129.803 158.182 131.099 157.085 131.546 155.539L148.565 93.558H149.547C155.265 93.558 159.911 88.3721 159.911 81.9895V81.2416H160ZM107.915 40.8019C106.888 39.0068 107.335 36.6133 108.943 35.4166C109.747 34.8681 110.64 34.6686 111.578 34.8681C112.472 35.0675 113.276 35.6659 113.767 36.5634L132.796 69.6233H124.532L107.915 40.8019ZM56.2329 36.5634C56.7242 35.6659 57.5283 35.0675 58.4217 34.8681C59.3151 34.6686 60.2531 34.8182 61.0572 35.4166C62.0399 36.1147 62.6653 37.3613 62.6653 38.7076C62.6653 39.4556 62.4866 40.1537 62.1292 40.8019L45.5122 69.6731H37.2484L56.2329 36.5634ZM125.917 150.702H44.0828L28.3591 93.558H141.596L125.917 150.702ZM153.3 81.9895C153.3 84.2334 151.647 86.0784 149.637 86.0784H146.197H146.152H23.8922H23.8475H20.408C18.3979 86.0784 16.7451 84.2334 16.7451 81.9895V81.2416C16.7451 78.9977 18.3979 77.1527 20.408 77.1527H31.8434H31.888H47.2543H122.656H138.023C138.023 77.1527 138.023 77.1527 138.067 77.1527H149.547C151.557 77.1527 153.21 78.9977 153.21 81.2416V81.9895H153.3Z" fill="black"/>
<path d="M63.9606 136.042C65.792 136.042 67.3108 134.347 67.3108 132.302V111.958C67.3108 109.913 65.792 108.218 63.9606 108.218C62.1291 108.218 60.6104 109.913 60.6104 111.958V132.302C60.6104 134.397 62.1291 136.042 63.9606 136.042Z" fill="black"/>
<path d="M85.0001 136.042C86.8316 136.042 88.3503 134.347 88.3503 132.302V111.958C88.3503 109.913 86.8316 108.218 85.0001 108.218C83.1687 108.218 81.6499 109.913 81.6499 111.958V132.302C81.6499 134.397 83.1687 136.042 85.0001 136.042Z" fill="black"/>
<path d="M106.039 136.042C107.871 136.042 109.389 134.347 109.389 132.302V111.958C109.389 109.913 107.871 108.218 106.039 108.218C104.208 108.218 102.689 109.913 102.689 111.958V132.302C102.689 134.397 104.163 136.042 106.039 136.042Z" fill="black"/>
</svg>
