<svg width="170" height="155" viewBox="0 0 170 155" fill="none" xmlns="http://www.w3.org/2000/svg">
<path d="M164.688 125.182V132.426C164.688 137.98 129.014 147.301 85 147.301C40.9859 147.301 5.3125 137.98 5.3125 132.547V125.303C5.3125 109.244 18.7531 94.4176 39.8438 86.0142C41.5126 94.1145 42.4014 102.332 42.5 110.572C42.5 111.853 43.0597 113.082 44.056 113.987C45.0523 114.893 46.4035 115.402 47.8125 115.402C49.2215 115.402 50.5727 114.893 51.569 113.987C52.5653 113.082 53.125 111.853 53.125 110.572C53.1541 101.51 52.265 92.465 50.4688 83.5511C59.1197 81.2963 68.0383 79.999 77.0312 79.6875C80.6915 91.2799 82.481 103.294 82.3438 115.354C82.3438 116.635 82.9035 117.863 83.8997 118.769C84.896 119.674 86.2473 120.183 87.6562 120.183C89.0652 120.183 90.4165 119.674 91.4128 118.769C92.409 117.863 92.9688 116.635 92.9688 115.354C93.0073 103.3 91.2197 91.2982 87.6562 79.6875C97.75 79.9048 107.605 80.0497 116.397 82.2713C118.517 91.5402 119.567 100.985 119.531 110.452C119.531 111.733 120.091 112.961 121.087 113.867C122.084 114.772 123.435 115.281 124.844 115.281C126.253 115.281 127.604 114.772 128.6 113.867C129.597 112.961 130.156 111.733 130.156 110.452C130.035 102.212 129.146 93.9967 127.5 85.8935C149.573 94.1761 164.688 108.665 164.688 125.182Z" stroke="black" stroke-width="6" stroke-linejoin="round"/>
<path d="M90.3125 17.1207C90.3125 29.3878 79.6875 29.3878 79.6875 41.679C79.6875 53.9702 90.3125 53.946 90.3125 66.2372" stroke="black" stroke-width="6" stroke-linecap="round" stroke-linejoin="round"/>
<path d="M34.5312 36.7529C34.5312 37.9603 23.9062 47.1847 23.9062 56.4092C23.9062 66.2615 34.5312 66.2373 34.5312 76.0654" stroke="black" stroke-width="6" stroke-linecap="round" stroke-linejoin="round"/>
<path d="M138.125 34.314C138.125 35.4972 127.5 44.7458 127.5 53.9461C127.5 63.7983 138.125 63.7742 138.125 73.6023" stroke="black" stroke-width="6" stroke-linecap="round" stroke-linejoin="round"/>
<path d="M50.4688 41.6791L53.125 44.1421" stroke="black" stroke-width="6" stroke-linecap="round" stroke-linejoin="round"/>
<path d="M61.0938 44.1421L63.75 41.6791" stroke="black" stroke-width="6" stroke-linecap="round" stroke-linejoin="round"/>
<path d="M53.125 51.5071L50.4688 53.946" stroke="black" stroke-width="6" stroke-linecap="round" stroke-linejoin="round"/>
<path d="M61.0938 51.5071L63.75 53.946" stroke="black" stroke-width="6" stroke-linecap="round" stroke-linejoin="round"/>
<path d="M114.219 4.82959L116.875 7.29266" stroke="black" stroke-width="6" stroke-linecap="round" stroke-linejoin="round"/>
<path d="M124.844 7.29266L127.5 4.82959" stroke="black" stroke-width="6" stroke-linecap="round" stroke-linejoin="round"/>
<path d="M116.875 14.6577L114.219 17.1208" stroke="black" stroke-width="6" stroke-linecap="round" stroke-linejoin="round"/>
<path d="M124.844 14.6577L127.5 17.1208" stroke="black" stroke-width="6" stroke-linecap="round" stroke-linejoin="round"/>
<path d="M151.406 53.946L154.062 56.4091" stroke="black" stroke-width="6" stroke-linecap="round" stroke-linejoin="round"/>
<path d="M162.031 56.4091L164.688 53.946" stroke="black" stroke-width="6" stroke-linecap="round" stroke-linejoin="round"/>
<path d="M154.062 63.7742L151.406 66.2372" stroke="black" stroke-width="6" stroke-linecap="round" stroke-linejoin="round"/>
<path d="M162.031 63.7742L164.688 66.2372" stroke="black" stroke-width="6" stroke-linecap="round" stroke-linejoin="round"/>
</svg>
