<svg width="31" height="46" viewBox="0 0 31 46" fill="none" xmlns="http://www.w3.org/2000/svg">
<path d="M30.1042 44.6236C30.7582 43.841 31.073 42.8345 30.9802 41.8233C30.8873 40.8121 30.3943 39.8782 29.6085 39.225L9.93001 23.0002L29.6082 6.77517C30.3971 6.12385 30.8921 5.18919 30.9843 4.17681C31.0766 3.16442 30.7585 2.15725 30.1001 1.37685C29.4417 0.596456 28.4969 0.106759 27.4735 0.015491C26.4502 -0.0757769 25.4321 0.238861 24.6432 0.890186L1.39257 20.0577C0.95669 20.4173 0.606022 20.8672 0.365379 21.3757C0.124735 21.8842 0 22.4387 0 23.0002C0 23.5616 0.124735 24.1162 0.365379 24.6247C0.606022 25.1332 0.95669 25.5831 1.39257 25.9427L24.6435 45.1102C25.4332 45.7613 26.4518 46.0758 27.4756 45.9845C28.4995 45.8933 29.4449 45.4038 30.1042 44.6236Z" fill="white"/>
</svg>
