<svg width="31" height="46" viewBox="0 0 31 46" fill="none" xmlns="http://www.w3.org/2000/svg">
<path d="M0.895756 1.37644C0.241805 2.15901 -0.0730384 3.16552 0.0198154 4.1767C0.112669 5.18788 0.605695 6.1218 1.39149 6.77499L21.07 22.9998L1.39181 39.2248C0.602936 39.8762 0.107919 40.8108 0.0156593 41.8232C-0.0766001 42.8356 0.241455 43.8427 0.899856 44.6231C1.55826 45.4035 2.50307 45.8932 3.52645 45.9845C4.54983 46.0758 5.56795 45.7611 6.35682 45.1098L29.6074 25.9423C30.0433 25.5827 30.394 25.1328 30.6346 24.6243C30.8753 24.1158 31 23.5613 31 22.9998C31 22.4384 30.8753 21.8838 30.6346 21.3753C30.394 20.8668 30.0433 20.4169 29.6074 20.0573L6.3565 0.889805C5.56682 0.238705 4.54821 -0.0757523 3.52435 0.0154877C2.5005 0.106728 1.5551 0.596207 0.895756 1.37644Z" fill="white"/>
</svg>
