<svg width="373" height="80" viewBox="0 0 373 80" fill="none" xmlns="http://www.w3.org/2000/svg">
<path d="M111.208 64V18.304H138.344V23.36H116.968V37.632H123.752C128.317 37.632 131.859 38.208 134.376 39.36C136.893 40.4693 138.643 42.0053 139.624 43.968C140.605 45.888 141.096 48.1067 141.096 50.624C141.096 53.3973 140.541 55.7867 139.432 57.792C138.365 59.7973 136.616 61.3333 134.184 62.4C131.752 63.4667 128.552 64 124.584 64H111.208ZM124.008 59.072C128.104 59.072 130.984 58.3893 132.648 57.024C134.312 55.616 135.144 53.4827 135.144 50.624C135.144 48.6613 134.739 47.104 133.928 45.952C133.16 44.7573 131.88 43.904 130.088 43.392C128.339 42.88 125.992 42.624 123.048 42.624H116.968V59.072H124.008ZM169.719 51.008C168.354 54.0373 166.967 56.576 165.559 58.624C164.194 60.6293 162.572 62.144 160.695 63.168C158.818 64.1493 156.428 64.64 153.527 64.64C152.332 64.64 151.202 64.5547 150.135 64.384C149.111 64.2133 148.172 63.9787 147.319 63.68V57.984C148.172 58.368 149.09 58.688 150.071 58.944C151.052 59.1573 152.076 59.264 153.143 59.264C154.722 59.264 156.066 59.0507 157.175 58.624C158.327 58.1547 159.33 57.408 160.183 56.384C161.079 55.36 161.911 53.9947 162.679 52.288L145.079 18.304H151.415L164.151 43.456C164.322 43.7547 164.492 44.1173 164.663 44.544C164.834 44.928 165.004 45.3333 165.175 45.76C165.388 46.1867 165.559 46.592 165.687 46.976H165.943C166.071 46.6773 166.199 46.336 166.327 45.952C166.498 45.5253 166.647 45.12 166.775 44.736C166.946 44.3093 167.095 43.9467 167.223 43.648L178.231 18.304H184.311L169.719 51.008ZM220.229 64H214.469V23.36H200.005C199.706 25.7067 199.386 28.1813 199.045 30.784C198.704 33.344 198.341 35.8827 197.957 38.4C197.616 40.9173 197.274 43.2853 196.933 45.504C196.592 47.7227 196.25 49.664 195.909 51.328C195.354 54.1867 194.672 56.6187 193.861 58.624C193.05 60.6293 191.962 62.144 190.597 63.168C189.274 64.192 187.525 64.704 185.349 64.704C184.624 64.704 183.877 64.6187 183.109 64.448C182.384 64.32 181.744 64.1493 181.189 63.936V59.136C181.658 59.3493 182.192 59.5413 182.789 59.712C183.386 59.84 184.026 59.904 184.709 59.904C185.989 59.904 186.992 59.392 187.717 58.368C188.485 57.3013 189.082 56 189.509 54.464C189.936 52.8853 190.298 51.328 190.597 49.792C190.853 48.5547 191.152 46.912 191.493 44.864C191.834 42.7733 192.197 40.3413 192.581 37.568C193.008 34.7947 193.434 31.7867 193.861 28.544C194.33 25.2587 194.778 21.8453 195.205 18.304H220.229V64ZM265.99 64H259.078L238.406 40.832V64H232.646V18.304H238.406V40.448L258.566 18.304H265.094L245.253 40.512L265.99 64ZM300.88 64L295.376 49.856H277.264L271.824 64H266L283.856 18.112H289.04L306.832 64H300.88ZM288.528 30.912C288.4 30.5707 288.187 29.952 287.888 29.056C287.589 28.16 287.291 27.2427 286.992 26.304C286.736 25.3227 286.523 24.576 286.352 24.064C286.139 24.9173 285.904 25.792 285.648 26.688C285.435 27.5413 285.2 28.3307 284.944 29.056C284.731 29.7813 284.539 30.4 284.368 30.912L279.184 44.736H293.648L288.528 30.912ZM314.875 64.7812C313.625 64.7812 312.583 64.4479 311.75 63.7812C310.938 63.0938 310.531 62.1146 310.531 60.8438C310.531 59.5521 310.938 58.5625 311.75 57.875C312.583 57.1875 313.625 56.8438 314.875 56.8438C316.146 56.8438 317.198 57.1875 318.031 57.875C318.865 58.5625 319.281 59.5521 319.281 60.8438C319.281 62.1146 318.865 63.0938 318.031 63.7812C317.198 64.4479 316.146 64.7812 314.875 64.7812ZM334.315 35.44C338.048 35.44 340.768 36.1733 342.475 37.64C344.182 39.1067 345.035 41.1733 345.035 43.84C345.035 45.0133 344.835 46.1467 344.435 47.24C344.062 48.3067 343.435 49.2667 342.555 50.12C341.675 50.9733 340.502 51.6533 339.035 52.16C337.568 52.64 335.768 52.88 333.635 52.88H330.355V64H326.755V35.44H334.315ZM333.995 38.52H330.355V49.8H333.235C335.048 49.8 336.555 49.6133 337.755 49.24C338.955 48.84 339.848 48.2133 340.435 47.36C341.022 46.5067 341.315 45.3867 341.315 44C341.315 42.16 340.728 40.7867 339.555 39.88C338.382 38.9733 336.528 38.52 333.995 38.52ZM362.934 55.88C362.08 57.7733 361.214 59.36 360.334 60.64C359.48 61.8933 358.467 62.84 357.294 63.48C356.12 64.0933 354.627 64.4 352.814 64.4C352.067 64.4 351.36 64.3467 350.694 64.24C350.054 64.1333 349.467 63.9867 348.934 63.8V60.24C349.467 60.48 350.04 60.68 350.654 60.84C351.267 60.9733 351.907 61.04 352.574 61.04C353.56 61.04 354.4 60.9067 355.094 60.64C355.814 60.3467 356.44 59.88 356.974 59.24C357.534 58.6 358.054 57.7467 358.534 56.68L347.534 35.44H351.494L359.454 51.16C359.56 51.3467 359.667 51.5733 359.774 51.84C359.88 52.08 359.987 52.3333 360.094 52.6C360.227 52.8667 360.334 53.12 360.414 53.36H360.574C360.654 53.1733 360.734 52.96 360.814 52.72C360.92 52.4533 361.014 52.2 361.094 51.96C361.2 51.6933 361.294 51.4667 361.374 51.28L368.254 35.44H372.054L362.934 55.88Z" fill="black"/>
<path d="M89.9726 39.8231C89.8211 37.7696 89.0851 35.8164 87.8649 34.2297C86.6448 32.6429 84.9998 31.4999 83.1542 30.9564C83.1488 30.9544 83.1415 30.9524 83.136 30.9505C82.1944 30.6911 81.3176 30.2108 80.5686 29.544C79.8195 28.8771 79.2167 28.0402 78.8034 27.0931C74.9565 18.2401 66.3039 6.42694 47.3446 5.06735C46.0686 4.9769 44.7884 4.97756 43.5124 5.0693C24.6095 6.42498 15.9533 18.1754 12.0919 27.0186C11.63 28.0641 10.9351 28.9703 10.0689 29.6563C9.20273 30.3424 8.19233 30.787 7.12779 30.9505C6.85259 30.9868 6.58057 31.0471 6.31439 31.1307C4.23025 31.8854 2.46316 33.4131 1.32877 35.441C0.19438 37.469 -0.233435 39.865 0.121742 42.2012C0.476919 44.5374 1.59195 46.6616 3.26768 48.1944C4.94341 49.7271 7.07069 50.5686 9.26956 50.5685C9.46972 50.5685 9.66625 50.5607 9.86096 50.547C9.89348 50.8259 10.0105 51.0855 10.194 51.2855C15.1799 56.6828 16.5792 64.9422 16.7648 66.1901C16.8849 68.8897 19.8601 71.0858 25.614 72.7157C30.8128 74.1889 37.6967 75 44.9954 75C52.2596 75 59.1198 74.1948 64.3096 72.7353C70.0161 71.1289 73.0113 68.97 73.2187 66.3135C73.2183 66.3101 73.2189 66.3067 73.2206 66.3037C73.2333 66.2116 74.5034 57.0295 79.8096 51.2855C79.9931 51.0855 80.1102 50.8259 80.1426 50.547C80.3374 50.5607 80.5321 50.5685 80.7304 50.5685C82.0077 50.5687 83.2712 50.2846 84.4417 49.7341C85.6122 49.1837 86.6643 48.3787 87.5322 47.3697C88.4 46.3607 89.0647 45.1695 89.4847 43.8709C89.9046 42.5722 90.0708 41.1941 89.9726 39.8231ZM55.8917 15.7579C56.0686 15.9706 56.1599 16.2501 56.1456 16.5351C56.1312 16.8201 56.0125 17.0874 55.8153 17.2782L51.5536 21.3981C51.3559 21.589 51.096 21.6876 50.8308 21.6722C50.5656 21.6568 50.317 21.5286 50.1397 21.3158C49.9623 21.103 49.8707 20.8231 49.8851 20.5377C49.8994 20.2522 50.0185 19.9846 50.2161 19.7936L54.4778 15.6757C54.6755 15.4848 54.9354 15.3862 55.2006 15.4016C55.4657 15.4171 55.7143 15.5452 55.8917 15.7579ZM49.9832 11.352C50.0809 11.2575 50.195 11.1846 50.3189 11.1375C50.4428 11.0904 50.5741 11.0701 50.7053 11.0776C50.8365 11.0852 50.9651 11.1205 51.0836 11.1815C51.2021 11.2425 51.3084 11.3281 51.3962 11.4333C51.484 11.5385 51.5517 11.6614 51.5954 11.7947C51.6392 11.9281 51.6581 12.0695 51.6511 12.2108C51.644 12.352 51.6113 12.4904 51.5546 12.618C51.4979 12.7456 51.4184 12.86 51.3207 12.9545L38.0461 25.7825C37.8632 25.961 37.625 26.0595 37.3782 26.0587C37.1757 26.0588 36.9779 25.9928 36.811 25.8693C36.6441 25.7459 36.5159 25.5708 36.4433 25.3672C36.3708 25.1637 36.3573 24.9412 36.4046 24.7292C36.452 24.5173 36.558 24.3257 36.7086 24.18L49.9832 11.352ZM48.3073 24.4679L45.8325 26.8991C45.7357 26.996 45.622 27.0713 45.4981 27.1207C45.3741 27.17 45.2423 27.1925 45.1103 27.1867C44.9782 27.1809 44.8485 27.147 44.7287 27.087C44.6089 27.027 44.5013 26.942 44.4121 26.8369C44.323 26.7319 44.254 26.6089 44.2093 26.475C44.1645 26.3411 44.1448 26.199 44.1513 26.0569C44.1579 25.9148 44.1905 25.7755 44.2473 25.647C44.3041 25.5185 44.3839 25.4034 44.4823 25.3084L46.9571 22.8752C47.1534 22.6833 47.4124 22.583 47.6772 22.5964C47.9421 22.6098 48.1913 22.7357 48.37 22.9466C48.5488 23.1574 48.6426 23.436 48.6308 23.7212C48.619 24.0064 48.5027 24.275 48.3073 24.4679ZM36.0353 16.6297L40.4353 12.3786C40.6327 12.1876 40.8924 12.0889 41.1574 12.1042C41.4224 12.1194 41.6709 12.2474 41.8483 12.4599C42.0256 12.6724 42.1173 12.952 42.1032 13.2373C42.089 13.5226 41.9702 13.7901 41.7728 13.9811L37.371 18.2342C37.2731 18.3286 37.1589 18.4014 37.035 18.4483C36.911 18.4952 36.7796 18.5154 36.6484 18.5076C36.5172 18.4999 36.3887 18.4644 36.2703 18.4032C36.1518 18.342 36.0457 18.2563 35.958 18.1509C35.8703 18.0456 35.8027 17.9227 35.7591 17.7892C35.7155 17.6557 35.6968 17.5144 35.704 17.3731C35.7112 17.2318 35.7441 17.0935 35.801 16.9659C35.8578 16.8384 35.9374 16.7241 36.0353 16.6297ZM70.8932 65.8316C70.877 65.9075 70.8673 65.9849 70.8641 66.0628C70.8058 67.393 67.9307 69.0836 63.7109 70.2708C58.7104 71.6774 52.0649 72.4532 44.9954 72.4532C37.895 72.4532 31.2241 71.6716 26.2163 70.2532C21.3486 68.874 19.1486 67.1442 19.1286 66.0412C19.1266 65.9848 19.1217 65.9286 19.1141 65.8727C18.9776 64.9206 17.7256 57.0295 13.1637 51.0328C14.0007 50.6707 14.7909 50.194 15.5147 49.6145C15.7746 49.4037 16.091 49.2897 16.4164 49.2897C16.7417 49.2897 17.0582 49.4037 17.318 49.6145C19.1227 51.0608 21.3125 51.8419 23.5623 51.8419C25.8121 51.8419 28.0019 51.0608 29.8065 49.6145C30.0664 49.4037 30.3828 49.2897 30.7082 49.2897C31.0335 49.2897 31.35 49.4037 31.6098 49.6145C33.4145 51.0608 35.6043 51.8419 37.8541 51.8419C40.1039 51.8419 42.2937 51.0608 44.0983 49.6145C44.3582 49.4037 44.6747 49.2898 45 49.2898C45.3253 49.2898 45.6418 49.4037 45.9016 49.6145C47.7063 51.0608 49.8961 51.8419 52.1459 51.8419C54.3957 51.8419 56.5855 51.0608 58.3901 49.6145C58.65 49.4037 58.9665 49.2897 59.2918 49.2897C59.6171 49.2897 59.9336 49.4037 60.1934 49.6145C61.9981 51.0608 64.1879 51.8419 66.4377 51.8419C68.6875 51.8419 70.8773 51.0608 72.6819 49.6145C72.9418 49.4037 73.2583 49.2897 73.5836 49.2897C73.9089 49.2897 74.2254 49.4037 74.4852 49.6145C75.2097 50.194 76.0005 50.6708 76.8381 51.0328C72.2998 56.9903 71.0497 64.7502 70.8932 65.8316Z" fill="#F5A423"/>
</svg>
